<svg width="110" height="42" viewBox="0 0 110 42" fill="none" xmlns="http://www.w3.org/2000/svg">
<g filter="url(#filter0_d_101_78)">
<path d="M76.952 31V7.256H83.032V31H76.952ZM89.9593 37.496C89.0419 37.496 88.1139 37.3467 87.1753 37.048C86.2579 36.7707 85.5113 36.3973 84.9352 35.928L87.0473 31.672C87.4099 31.992 87.8259 32.2373 88.2953 32.408C88.7859 32.6 89.2659 32.696 89.7352 32.696C90.3966 32.696 90.9193 32.5467 91.3033 32.248C91.6873 31.9493 92.0179 31.48 92.2953 30.84L93.0953 28.824L93.5753 28.216L99.4633 13.656H105.255L97.7673 31.704C97.1699 33.1973 96.4766 34.36 95.6873 35.192C94.9193 36.0453 94.0553 36.6427 93.0953 36.984C92.1566 37.3253 91.1113 37.496 89.9593 37.496ZM92.3273 31.736L84.6792 13.656H90.9193L96.5513 27.672L92.3273 31.736Z" fill="#4B3387"/>
</g>
<g filter="url(#filter1_d_101_78)">
<path d="M4.952 31V13.656H10.744V18.712L9.88 17.272C10.392 15.9707 11.224 15 12.376 14.36C13.528 13.6987 14.9253 13.368 16.568 13.368V18.84C16.2907 18.7973 16.0453 18.776 15.832 18.776C15.64 18.7547 15.4267 18.744 15.192 18.744C13.9547 18.744 12.952 19.0853 12.184 19.768C11.416 20.4293 11.032 21.5173 11.032 23.032V31H4.952ZM28.0088 31.288C25.9608 31.288 24.1688 30.904 22.6328 30.136C21.1181 29.3467 19.9341 28.28 19.0807 26.936C18.2488 25.5707 17.8328 24.024 17.8328 22.296C17.8328 20.568 18.2381 19.032 19.0488 17.688C19.8808 16.3227 21.0221 15.2667 22.4728 14.52C23.9234 13.752 25.5554 13.368 27.3688 13.368C29.0754 13.368 30.6328 13.72 32.0408 14.424C33.4488 15.1067 34.5688 16.12 35.4008 17.464C36.2328 18.808 36.6488 20.44 36.6488 22.36C36.6488 22.5733 36.6381 22.8187 36.6168 23.096C36.5954 23.3733 36.5741 23.6293 36.5528 23.864H22.8248V20.664H33.3208L31.0168 21.56C31.0381 20.7707 30.8888 20.088 30.5688 19.512C30.2701 18.936 29.8434 18.488 29.2888 18.168C28.7554 17.848 28.1261 17.688 27.4008 17.688C26.6754 17.688 26.0354 17.848 25.4808 18.168C24.9474 18.488 24.5314 18.9467 24.2328 19.544C23.9341 20.12 23.7848 20.8027 23.7848 21.592V22.52C23.7848 23.3733 23.9554 24.1093 24.2968 24.728C24.6594 25.3467 25.1714 25.8267 25.8328 26.168C26.4941 26.488 27.2834 26.648 28.2008 26.648C29.0541 26.648 29.7794 26.5307 30.3768 26.296C30.9954 26.04 31.6034 25.656 32.2008 25.144L35.4008 28.472C34.5688 29.3893 33.5448 30.0933 32.3288 30.584C31.1128 31.0533 29.6728 31.288 28.0088 31.288ZM50.748 13.368C52.092 13.368 53.308 13.6453 54.396 14.2C55.484 14.7333 56.3373 15.5653 56.956 16.696C57.596 17.8267 57.916 19.288 57.916 21.08V31H51.836V22.072C51.836 20.8347 51.58 19.9387 51.068 19.384C50.5773 18.808 49.884 18.52 48.988 18.52C48.348 18.52 47.7613 18.6693 47.228 18.968C46.6947 19.2453 46.2787 19.6827 45.98 20.28C45.6813 20.8773 45.532 21.656 45.532 22.616V31H39.452V13.656H45.244V18.584L44.124 17.144C44.7853 15.8853 45.692 14.9467 46.844 14.328C47.996 13.688 49.2973 13.368 50.748 13.368ZM69.4773 31.288C67.2586 31.288 65.5306 30.744 64.2933 29.656C63.0559 28.5467 62.4373 26.8827 62.4373 24.664V9.784H68.5173V24.6C68.5173 25.2187 68.6879 25.7093 69.0293 26.072C69.3706 26.4133 69.8079 26.584 70.3413 26.584C71.0666 26.584 71.6853 26.4027 72.1973 26.04L73.7013 30.296C73.1893 30.6373 72.5599 30.8827 71.8133 31.032C71.0666 31.2027 70.2879 31.288 69.4773 31.288ZM59.9093 18.84V14.296H72.4853V18.84H59.9093Z" fill="black"/>
</g>
<defs>
<filter id="filter0_d_101_78" x="72.952" y="3.25598" width="36.3032" height="38.24" filterUnits="userSpaceOnUse" color-interpolation-filters="sRGB">
<feFlood flood-opacity="0" result="BackgroundImageFix"/>
<feColorMatrix in="SourceAlpha" type="matrix" values="0 0 0 0 0 0 0 0 0 0 0 0 0 0 0 0 0 0 127 0" result="hardAlpha"/>
<feOffset/>
<feGaussianBlur stdDeviation="2"/>
<feComposite in2="hardAlpha" operator="out"/>
<feColorMatrix type="matrix" values="0 0 0 0 0.294118 0 0 0 0 0.2 0 0 0 0 0.529412 0 0 0 0.5 0"/>
<feBlend mode="normal" in2="BackgroundImageFix" result="effect1_dropShadow_101_78"/>
<feBlend mode="normal" in="SourceGraphic" in2="effect1_dropShadow_101_78" result="shape"/>
</filter>
<filter id="filter1_d_101_78" x="0.951904" y="5.78406" width="76.7494" height="29.5039" filterUnits="userSpaceOnUse" color-interpolation-filters="sRGB">
<feFlood flood-opacity="0" result="BackgroundImageFix"/>
<feColorMatrix in="SourceAlpha" type="matrix" values="0 0 0 0 0 0 0 0 0 0 0 0 0 0 0 0 0 0 127 0" result="hardAlpha"/>
<feOffset/>
<feGaussianBlur stdDeviation="2"/>
<feComposite in2="hardAlpha" operator="out"/>
<feColorMatrix type="matrix" values="0 0 0 0 0 0 0 0 0 0 0 0 0 0 0 0 0 0 0.5 0"/>
<feBlend mode="normal" in2="BackgroundImageFix" result="effect1_dropShadow_101_78"/>
<feBlend mode="normal" in="SourceGraphic" in2="effect1_dropShadow_101_78" result="shape"/>
</filter>
</defs>
</svg>
