<svg width="150" height="150" viewBox="0 0 150 150" fill="none" xmlns="http://www.w3.org/2000/svg">
<path fill-rule="evenodd" clip-rule="evenodd" d="M75 150C116.421 150 150 116.421 150 75C150 33.5786 116.421 0 75 0C33.5786 0 0 33.5786 0 75C0 116.421 33.5786 150 75 150ZM75.5 142C112.779 142 143 111.779 143 74.5C143 37.2208 112.779 7 75.5 7C38.2208 7 8 37.2208 8 74.5C8 111.779 38.2208 142 75.5 142Z" fill="#2B2B2B"/>
<line x1="35" y1="110.05" x2="110.05" y2="34.9999" stroke="#2B2B2B" stroke-width="7" stroke-linecap="round"/>
<line x1="39.9497" y1="35" x2="115" y2="110.05" stroke="#2B2B2B" stroke-width="7" stroke-linecap="round"/>
</svg>
